<svg class="logo-mark" viewBox="0 0 52.67 52.61" xmlns="http://www.w3.org/2000/svg">
  <path class="logo-mark_circle" d="m52.67 26.31a26.34 26.34 0 1 1 -26.36-26.31 26.31 26.31 0 0 1 26.36 26.31"></path>
  <path class="logo-mark_stem" d="m33 29.47a6.16 6.16 0 0 1 -6.13 6.18h-4v-4a6.15 6.15 0 0 1 6.13-6.17h4.08zm2.92-6.91a5.74 5.74 0 0 0 3.63-2.28 6.84 6.84 0 0 0 1.45-4.2 6.17 6.17 0 0 0 -1.81-4.47 7.77 7.77 0 0 0 -5.71-2.07h-13.82c1.35.26 2 1.55 2 3.84v17.94a6.94 6.94 0 0 0 -6.86-6h-4.48v4.51a7 7 0 0 0 7 7h4.42v7.57a2.6 2.6 0 0 0 -2.59-2.28h-1.71v1.66a2.56 2.56 0 0 0 2.56 2.58h1.71v5.81l1.13.16v-5.92h1.66a2.57 2.57 0 0 0 2.59-2.55v-1.7h-1.67a2.65 2.65 0 0 0 -2.6 2.33v-7.62h11.78a7.71 7.71 0 0 0 5.82-2.23 6.72 6.72 0 0 0 1.91-4.88 7.2 7.2 0 0 0 -1.76-4.83 6.88 6.88 0 0 0 -4.66-2.37"></path>
</svg>